<?xml version="1.0" encoding="iso-8859-1"?>
<!-- Generator: Adobe Illustrator 19.0.0, SVG Export Plug-In . SVG Version: 6.00 Build 0)  -->
<svg version="1.1" id="Capa_1" xmlns="http://www.w3.org/2000/svg" xmlns:xlink="http://www.w3.org/1999/xlink" x="0px" y="0px"
	 viewBox="0 0 512 512" style="enable-background:new 0 0 512 512;" xml:space="preserve">
<circle style="fill:#FFA070;" cx="256" cy="256" r="256"/>
<path style="fill:#D36836;" d="M508.501,298.303L293.37,83.173C284.142,72.288,270.734,66,256,66
	c-17.966,0-33.973,9.336-42.816,24.975L80.122,326.264c-8.709,15.399-8.587,33.716,0.327,48.998
	c2.177,3.733,4.777,7.09,7.713,10.041l122.916,122.764C225.664,510.649,240.674,512,256,512
	C382.972,512,488.335,419.555,508.501,298.303z"/>
<path style="fill:#FFE83A;" d="M229.722,100.328L96.661,335.617c-11.381,20.125,3.158,45.05,26.278,45.05h266.123
	c23.12,0,37.659-24.925,26.278-45.05L282.278,100.328C270.72,79.891,241.28,79.891,229.722,100.328z"/>
<path style="fill:#FFC400;" d="M389.06,380.67H256V85c10.25,0,20.5,5.11,26.28,15.33l133.06,235.29
	C426.72,355.74,412.18,380.67,389.06,380.67z"/>
<path style="fill:#785E72;" d="M389.061,399.667H122.938c-17.691,0-33.575-9.124-42.489-24.405
	c-8.914-15.282-9.036-33.599-0.327-48.998L213.184,90.975C222.027,75.336,238.034,66,256,66s33.973,9.336,42.816,24.975
	l133.061,235.289c8.709,15.399,8.586,33.716-0.327,48.998C422.637,390.543,406.753,399.667,389.061,399.667z M256,104
	c-1.962,0-6.84,0.554-9.739,5.681l0,0L113.199,344.97c-2.856,5.049-0.899,9.477,0.074,11.146c0.974,1.669,3.864,5.551,9.665,5.551
	h266.123c5.801,0,8.691-3.882,9.665-5.551s2.93-6.096,0.074-11.146L265.739,109.681C262.84,104.554,257.962,104,256,104z"/>
<path style="fill:#64334C;" d="M431.88,326.26L298.82,90.98C289.97,75.34,273.97,66,256,66v38c1.96,0,6.84,0.55,9.74,5.68
	L398.8,344.97c2.86,5.05,0.9,9.48-0.07,11.15c-0.98,1.66-3.87,5.55-9.67,5.55H256v38h133.06c17.69,0,33.58-9.13,42.49-24.41
	C440.46,359.98,440.59,341.66,431.88,326.26z"/>
<rect x="234.62" y="174" style="fill:#785E72;" width="42.751" height="106.5"/>
<rect x="256" y="174" style="fill:#64334C;" width="21.374" height="106.5"/>
<circle style="fill:#785E72;" cx="256" cy="315.53" r="22.296"/>
<path style="fill:#64334C;" d="M278.297,315.53c0-12.317-9.98-22.297-22.297-22.297v44.588
	C268.316,337.82,278.297,327.84,278.297,315.53z"/>
<g>
</g>
<g>
</g>
<g>
</g>
<g>
</g>
<g>
</g>
<g>
</g>
<g>
</g>
<g>
</g>
<g>
</g>
<g>
</g>
<g>
</g>
<g>
</g>
<g>
</g>
<g>
</g>
<g>
</g>
</svg>
